<svg xmlns="http://www.w3.org/2000/svg" xmlns:xlink="http://www.w3.org/1999/xlink" width="90" height="90" viewBox="0 0 90 90"><defs><path id="capaa" d="M1384.76 1165.03v-43.95c0-9.31-7.56-16.87-16.88-16.87h-43.96a16.82 16.82 0 0 1 15.84-11.24h39.38c9.31 0 16.87 7.55 16.87 16.87v39.35c0 7.34-4.71 13.51-11.25 15.84zm-5.62-38.33v39.36c0 9.32-7.56 16.87-16.88 16.87h-39.37a16.87 16.87 0 0 1-16.88-16.87v-39.36c0-9.31 7.55-16.86 16.88-16.86h39.37c9.32 0 16.88 7.55 16.88 16.86zm-61.88 39.36c0 3.1 2.52 5.62 5.63 5.62h39.37c3.1 0 5.62-2.51 5.62-5.62v-22.49h-50.62zm0-39.36v11.25h50.62v-11.25c0-3.1-2.51-5.62-5.62-5.62h-39.37a5.62 5.62 0 0 0-5.63 5.62zm45 5.63h-16.88v-5.63h16.88zm-28.12-5.63h5.62v5.63h-5.62zm-11.25 0h5.62v5.63h-5.62z"/></defs><g><g transform="translate(-1306 -1093)"><use fill="#b7bbc2" xlink:href="#capaa"/><use fill="#4e1577" xlink:href="#capaa"/></g></g></svg>