<svg xmlns="http://www.w3.org/2000/svg" xmlns:xlink="http://www.w3.org/1999/xlink" width="99" height="74" viewBox="0 0 99 74"><defs><path id="pjd9a" d="M988.45 1180.96h-61.87a18.53 18.53 0 0 1-18.57-18.5v-36.98c0-10.2 8.31-18.49 18.57-18.49h61.87a18.53 18.53 0 0 1 18.56 18.5v36.98c0 10.2-8.3 18.49-18.56 18.49zm-61.87-61.64a6.1 6.1 0 0 0-3.93 1.5l34.86 23.16 34.87-23.16a6.1 6.1 0 0 0-3.93-1.5zm68.06 12.33l-37.13 24.65-37.12-24.65v24.65l18.56-6.16-16.75 16.69a6.18 6.18 0 0 0 4.38 1.8h61.87c1.71 0 3.26-.69 4.38-1.8l-16.75-16.7 18.56 6.17z"/></defs><g><g transform="translate(-908 -1107)"><use fill="#b7bbc2" xlink:href="#pjd9a"/><use fill="#4e1577" xlink:href="#pjd9a"/></g></g></svg>